<mxfile host="65bd71144e" pages="2">
    <diagram id="DM9oVYlh56DOeOFKhrWf" name="federated architecture">
        <mxGraphModel dx="1098" dy="579" grid="1" gridSize="10" guides="1" tooltips="1" connect="1" arrows="1" fold="1" page="1" pageScale="1" pageWidth="1600" pageHeight="1200" background="none" math="0" shadow="0">
            <root>
                <mxCell id="0"/>
                <mxCell id="1" parent="0"/>
                <mxCell id="14" value="" style="group;rounded=1;" parent="1" vertex="1" connectable="0">
                    <mxGeometry x="560" y="265" width="580" height="410" as="geometry"/>
                </mxCell>
                <mxCell id="13" value="" style="whiteSpace=wrap;html=1;strokeWidth=3;align=left;fillColor=#647687;strokeColor=#314354;fontColor=#ffffff;rounded=1;" parent="14" vertex="1">
                    <mxGeometry x="-10" y="-20" width="580" height="410" as="geometry"/>
                </mxCell>
                <mxCell id="2" value="app shell - home&lt;br&gt;(host)" style="whiteSpace=wrap;html=1;fillColor=#a0522d;strokeColor=#6D1F00;fontColor=#ffffff;rounded=1;" parent="14" vertex="1">
                    <mxGeometry x="230" y="70" width="120" height="60" as="geometry"/>
                </mxCell>
                <mxCell id="3" value="advising&lt;br&gt;(bi-directional host)" style="whiteSpace=wrap;html=1;fillColor=#6d8764;strokeColor=#3A5431;fontColor=#ffffff;rounded=1;" parent="14" vertex="1">
                    <mxGeometry x="70" y="170" width="120" height="60" as="geometry"/>
                </mxCell>
                <mxCell id="4" value="nav&lt;br&gt;(bi-directional host)" style="whiteSpace=wrap;html=1;fillColor=#6d8764;strokeColor=#3A5431;fontColor=#ffffff;rounded=1;" parent="14" vertex="1">
                    <mxGeometry x="390" y="170" width="120" height="60" as="geometry"/>
                </mxCell>
                <mxCell id="5" value="design system&lt;br&gt;(remote)" style="whiteSpace=wrap;html=1;fillColor=#76608a;strokeColor=#432D57;fontColor=#ffffff;rounded=1;" parent="14" vertex="1">
                    <mxGeometry x="230" y="270" width="120" height="60" as="geometry"/>
                </mxCell>
                <mxCell id="6" value="" style="endArrow=classic;html=1;entryX=0.25;entryY=1;entryDx=0;entryDy=0;exitX=1;exitY=0.25;exitDx=0;exitDy=0;" parent="14" source="5" target="4" edge="1">
                    <mxGeometry width="50" height="50" relative="1" as="geometry">
                        <mxPoint x="360" y="340" as="sourcePoint"/>
                        <mxPoint x="410" y="290" as="targetPoint"/>
                    </mxGeometry>
                </mxCell>
                <mxCell id="7" value="" style="endArrow=classic;html=1;entryX=0.813;entryY=1.04;entryDx=0;entryDy=0;entryPerimeter=0;exitX=-0.012;exitY=0.12;exitDx=0;exitDy=0;exitPerimeter=0;" parent="14" source="5" target="3" edge="1">
                    <mxGeometry width="50" height="50" relative="1" as="geometry">
                        <mxPoint x="360.0000000000002" y="295" as="sourcePoint"/>
                        <mxPoint x="430" y="240" as="targetPoint"/>
                    </mxGeometry>
                </mxCell>
                <mxCell id="9" value="" style="endArrow=classic;html=1;entryX=0.5;entryY=1;entryDx=0;entryDy=0;" parent="14" source="5" target="2" edge="1">
                    <mxGeometry width="50" height="50" relative="1" as="geometry">
                        <mxPoint x="238.56000000000006" y="287.19999999999993" as="sourcePoint"/>
                        <mxPoint x="177.56000000000006" y="242.39999999999998" as="targetPoint"/>
                    </mxGeometry>
                </mxCell>
                <mxCell id="10" value="" style="endArrow=classic;html=1;entryX=0.004;entryY=0.829;entryDx=0;entryDy=0;entryPerimeter=0;exitX=0.75;exitY=0;exitDx=0;exitDy=0;" parent="14" source="3" target="2" edge="1">
                    <mxGeometry width="50" height="50" relative="1" as="geometry">
                        <mxPoint x="248.56000000000006" y="297.19999999999993" as="sourcePoint"/>
                        <mxPoint x="187.56000000000006" y="252.39999999999998" as="targetPoint"/>
                    </mxGeometry>
                </mxCell>
                <mxCell id="11" value="" style="endArrow=classic;html=1;exitX=0.25;exitY=0;exitDx=0;exitDy=0;entryX=1;entryY=0.75;entryDx=0;entryDy=0;" parent="14" source="4" target="2" edge="1">
                    <mxGeometry width="50" height="50" relative="1" as="geometry">
                        <mxPoint x="258.56000000000006" y="307.19999999999993" as="sourcePoint"/>
                        <mxPoint x="197.56000000000006" y="262.4" as="targetPoint"/>
                    </mxGeometry>
                </mxCell>
                <mxCell id="27" value="front-end" style="text;strokeColor=none;fillColor=none;html=1;fontSize=24;fontStyle=1;verticalAlign=middle;align=center;opacity=30;rounded=1;" parent="14" vertex="1">
                    <mxGeometry x="240" y="10" width="100" height="40" as="geometry"/>
                </mxCell>
                <mxCell id="33" value="" style="group;rounded=1;" parent="1" vertex="1" connectable="0">
                    <mxGeometry x="550" y="755" width="580" height="410" as="geometry"/>
                </mxCell>
                <mxCell id="34" value="" style="whiteSpace=wrap;html=1;strokeWidth=3;align=left;fillColor=#647687;strokeColor=#314354;fontColor=#ffffff;rounded=1;" parent="33" vertex="1">
                    <mxGeometry x="-10" y="-20" width="580" height="410" as="geometry"/>
                </mxCell>
                <mxCell id="35" value="apollo graphql api&lt;br&gt;" style="whiteSpace=wrap;html=1;fillColor=#a0522d;strokeColor=#6D1F00;fontColor=#ffffff;rounded=1;" parent="33" vertex="1">
                    <mxGeometry x="230" y="70" width="120" height="60" as="geometry"/>
                </mxCell>
                <mxCell id="41" value="" style="endArrow=classic;html=1;entryX=0.5;entryY=1;entryDx=0;entryDy=0;" parent="33" target="35" edge="1">
                    <mxGeometry width="50" height="50" relative="1" as="geometry">
                        <mxPoint x="290" y="269.9999999999998" as="sourcePoint"/>
                        <mxPoint x="177.56000000000006" y="242.39999999999998" as="targetPoint"/>
                    </mxGeometry>
                </mxCell>
                <mxCell id="44" value="back-end" style="text;strokeColor=none;fillColor=none;html=1;fontSize=24;fontStyle=1;verticalAlign=middle;align=center;opacity=30;rounded=1;" parent="33" vertex="1">
                    <mxGeometry x="240" y="10" width="100" height="40" as="geometry"/>
                </mxCell>
                <mxCell id="47" value="db" style="shape=cylinder3;whiteSpace=wrap;html=1;boundedLbl=1;backgroundOutline=1;size=15;strokeWidth=3;fillColor=#006666;rounded=1;" parent="33" vertex="1">
                    <mxGeometry x="260" y="270" width="60" height="80" as="geometry"/>
                </mxCell>
                <mxCell id="48" value="" style="endArrow=classic;startArrow=classic;html=1;entryX=0.5;entryY=1;entryDx=0;entryDy=0;exitX=0.5;exitY=0;exitDx=0;exitDy=0;" parent="1" source="34" target="13" edge="1">
                    <mxGeometry width="50" height="50" relative="1" as="geometry">
                        <mxPoint x="820" y="725" as="sourcePoint"/>
                        <mxPoint x="870" y="675" as="targetPoint"/>
                    </mxGeometry>
                </mxCell>
                <mxCell id="51" value="" style="group;rounded=1;" parent="1" vertex="1" connectable="0">
                    <mxGeometry x="820" y="45" width="155" height="120" as="geometry"/>
                </mxCell>
                <mxCell id="49" value="" style="shape=actor;whiteSpace=wrap;html=1;strokeWidth=3;fillColor=#006666;rounded=1;" parent="51" vertex="1">
                    <mxGeometry x="195" y="70" width="40" height="60" as="geometry"/>
                </mxCell>
                <mxCell id="50" value="&lt;p style=&quot;line-height: 140%&quot;&gt;&lt;font style=&quot;font-size: 18px&quot;&gt;user&lt;/font&gt;&lt;/p&gt;&lt;p style=&quot;line-height: 140%&quot;&gt;&lt;font style=&quot;font-size: 18px&quot;&gt;(student, advisor)&lt;/font&gt;&lt;/p&gt;" style="text;html=1;align=center;verticalAlign=middle;resizable=0;points=[];autosize=1;rounded=1;" parent="1" vertex="1">
                    <mxGeometry x="960" y="35" width="150" height="80" as="geometry"/>
                </mxCell>
                <mxCell id="52" value="" style="endArrow=classic;html=1;entryX=1;entryY=0;entryDx=0;entryDy=0;" parent="1" target="2" edge="1">
                    <mxGeometry width="50" height="50" relative="1" as="geometry">
                        <mxPoint x="1010" y="175" as="sourcePoint"/>
                        <mxPoint x="980" y="165" as="targetPoint"/>
                    </mxGeometry>
                </mxCell>
            </root>
        </mxGraphModel>
    </diagram>
    <diagram id="UKkcS3LwGO5PR7wQoNTo" name="auth flow">
        <mxGraphModel dx="866" dy="443" grid="1" gridSize="10" guides="1" tooltips="1" connect="1" arrows="1" fold="1" page="1" pageScale="1" pageWidth="1600" pageHeight="1200" math="0" shadow="0">
            <root>
                <mxCell id="uLK3mo7od4aeWB6zfHUG-0"/>
                <mxCell id="uLK3mo7od4aeWB6zfHUG-1" parent="uLK3mo7od4aeWB6zfHUG-0"/>
                <mxCell id="Za9VbzostcTSVsd-fmdi-0" value="&lt;meta charset=&quot;utf-8&quot;&gt;&lt;span style=&quot;&quot;&gt;&lt;/span&gt;" style="text;whiteSpace=wrap;html=1;" parent="uLK3mo7od4aeWB6zfHUG-1" vertex="1">
                    <mxGeometry x="760" y="680" width="30" height="20" as="geometry"/>
                </mxCell>
                <mxCell id="IltzzTHvNuD7wlDA7kX3-1" value="DSOE" style="swimlane;html=1;childLayout=stackLayout;resizeParent=1;resizeParentMax=0;horizontal=1;startSize=20;horizontalStack=0;" parent="uLK3mo7od4aeWB6zfHUG-1" vertex="1">
                    <mxGeometry x="70" y="260" width="1420" height="820" as="geometry"/>
                </mxCell>
                <mxCell id="IltzzTHvNuD7wlDA7kX3-2" value="front-end" style="swimlane;html=1;startSize=20;horizontal=0;strokeColor=#FFFFFF;" parent="IltzzTHvNuD7wlDA7kX3-1" vertex="1">
                    <mxGeometry y="20" width="1420" height="400" as="geometry"/>
                </mxCell>
                <mxCell id="IltzzTHvNuD7wlDA7kX3-5" value="azureAD&lt;br&gt;authentication" style="whiteSpace=wrap;html=1;aspect=fixed;fillColor=#2929CC;" parent="IltzzTHvNuD7wlDA7kX3-2" vertex="1">
                    <mxGeometry x="370" y="160" width="80" height="80" as="geometry"/>
                </mxCell>
                <mxCell id="9ubsqfYZCP7BpjDYP7gp-13" style="edgeStyle=orthogonalEdgeStyle;rounded=0;orthogonalLoop=1;jettySize=auto;html=1;exitX=1;exitY=0.5;exitDx=0;exitDy=0;entryX=0;entryY=0.5;entryDx=0;entryDy=0;" parent="IltzzTHvNuD7wlDA7kX3-2" source="IltzzTHvNuD7wlDA7kX3-8" target="9ubsqfYZCP7BpjDYP7gp-12" edge="1">
                    <mxGeometry relative="1" as="geometry"/>
                </mxCell>
                <mxCell id="IltzzTHvNuD7wlDA7kX3-8" value="start" style="ellipse;whiteSpace=wrap;html=1;strokeColor=#FFFFFF;fillColor=#006666;" parent="IltzzTHvNuD7wlDA7kX3-2" vertex="1">
                    <mxGeometry x="50" y="175" width="90" height="50" as="geometry"/>
                </mxCell>
                <mxCell id="IltzzTHvNuD7wlDA7kX3-20" value="DSOE registration" style="whiteSpace=wrap;html=1;aspect=fixed;fillColor=#2929CC;" parent="IltzzTHvNuD7wlDA7kX3-2" vertex="1">
                    <mxGeometry x="550" y="160" width="80" height="80" as="geometry"/>
                </mxCell>
                <mxCell id="IltzzTHvNuD7wlDA7kX3-33" value="user dashboard" style="whiteSpace=wrap;html=1;aspect=fixed;fillColor=#2929CC;" parent="IltzzTHvNuD7wlDA7kX3-2" vertex="1">
                    <mxGeometry x="1080" y="140" width="80" height="80" as="geometry"/>
                </mxCell>
                <mxCell id="IltzzTHvNuD7wlDA7kX3-39" value="end" style="ellipse;whiteSpace=wrap;html=1;strokeColor=#FFFFFF;fillColor=#006666;" parent="IltzzTHvNuD7wlDA7kX3-2" vertex="1">
                    <mxGeometry x="1220" y="155" width="90" height="50" as="geometry"/>
                </mxCell>
                <mxCell id="IltzzTHvNuD7wlDA7kX3-42" value="" style="endArrow=classic;html=1;exitX=1;exitY=0.5;exitDx=0;exitDy=0;entryX=0;entryY=0.5;entryDx=0;entryDy=0;" parent="IltzzTHvNuD7wlDA7kX3-2" source="IltzzTHvNuD7wlDA7kX3-33" target="IltzzTHvNuD7wlDA7kX3-39" edge="1">
                    <mxGeometry width="50" height="50" relative="1" as="geometry">
                        <mxPoint x="1140" y="230" as="sourcePoint"/>
                        <mxPoint x="1190" y="180" as="targetPoint"/>
                    </mxGeometry>
                </mxCell>
                <mxCell id="9ubsqfYZCP7BpjDYP7gp-14" value="NO" style="edgeStyle=orthogonalEdgeStyle;rounded=0;orthogonalLoop=1;jettySize=auto;html=1;exitX=1;exitY=0.5;exitDx=0;exitDy=0;entryX=0;entryY=0.5;entryDx=0;entryDy=0;" parent="IltzzTHvNuD7wlDA7kX3-2" source="9ubsqfYZCP7BpjDYP7gp-12" target="IltzzTHvNuD7wlDA7kX3-5" edge="1">
                    <mxGeometry relative="1" as="geometry"/>
                </mxCell>
                <mxCell id="9ubsqfYZCP7BpjDYP7gp-12" value="azure &lt;br&gt;token?" style="rhombus;whiteSpace=wrap;html=1;fillColor=#A300A3;" parent="IltzzTHvNuD7wlDA7kX3-2" vertex="1">
                    <mxGeometry x="190" y="160" width="80" height="80" as="geometry"/>
                </mxCell>
                <mxCell id="9ubsqfYZCP7BpjDYP7gp-15" value="YES" style="edgeStyle=elbowEdgeStyle;elbow=horizontal;endArrow=classic;html=1;exitX=0.5;exitY=0;exitDx=0;exitDy=0;entryX=0.5;entryY=0;entryDx=0;entryDy=0;" parent="IltzzTHvNuD7wlDA7kX3-2" source="9ubsqfYZCP7BpjDYP7gp-12" target="IltzzTHvNuD7wlDA7kX3-33" edge="1">
                    <mxGeometry width="50" height="50" relative="1" as="geometry">
                        <mxPoint x="240" y="130" as="sourcePoint"/>
                        <mxPoint x="1120" y="70" as="targetPoint"/>
                        <Array as="points">
                            <mxPoint x="260" y="50"/>
                        </Array>
                    </mxGeometry>
                </mxCell>
                <mxCell id="IltzzTHvNuD7wlDA7kX3-3" value="api" style="swimlane;html=1;startSize=20;horizontal=0;" parent="IltzzTHvNuD7wlDA7kX3-1" vertex="1">
                    <mxGeometry y="420" width="1420" height="200" as="geometry"/>
                </mxCell>
                <mxCell id="IltzzTHvNuD7wlDA7kX3-21" value="check registration" style="whiteSpace=wrap;html=1;aspect=fixed;fillColor=#2929CC;" parent="IltzzTHvNuD7wlDA7kX3-3" vertex="1">
                    <mxGeometry x="550" y="70" width="80" height="80" as="geometry"/>
                </mxCell>
                <mxCell id="IltzzTHvNuD7wlDA7kX3-30" value="user?" style="rhombus;whiteSpace=wrap;html=1;fillColor=#A300A3;" parent="IltzzTHvNuD7wlDA7kX3-3" vertex="1">
                    <mxGeometry x="680" y="70" width="80" height="80" as="geometry"/>
                </mxCell>
                <mxCell id="9ubsqfYZCP7BpjDYP7gp-2" value="" style="edgeStyle=elbowEdgeStyle;elbow=vertical;endArrow=classic;html=1;exitX=0.5;exitY=0;exitDx=0;exitDy=0;" parent="IltzzTHvNuD7wlDA7kX3-3" source="IltzzTHvNuD7wlDA7kX3-30" edge="1">
                    <mxGeometry width="50" height="50" relative="1" as="geometry">
                        <mxPoint x="820" y="110" as="sourcePoint"/>
                        <mxPoint x="970" y="80" as="targetPoint"/>
                        <Array as="points">
                            <mxPoint x="930" y="30"/>
                            <mxPoint x="830" y="40"/>
                            <mxPoint x="820" y="40"/>
                        </Array>
                    </mxGeometry>
                </mxCell>
                <mxCell id="9ubsqfYZCP7BpjDYP7gp-3" value="YES" style="edgeLabel;html=1;align=center;verticalAlign=middle;resizable=0;points=[];" parent="9ubsqfYZCP7BpjDYP7gp-2" vertex="1" connectable="0">
                    <mxGeometry x="0.3033" relative="1" as="geometry">
                        <mxPoint x="-1" as="offset"/>
                    </mxGeometry>
                </mxCell>
                <mxCell id="9ubsqfYZCP7BpjDYP7gp-4" value="generate jwt" style="whiteSpace=wrap;html=1;aspect=fixed;fillColor=#2929CC;" parent="IltzzTHvNuD7wlDA7kX3-3" vertex="1">
                    <mxGeometry x="930" y="80" width="80" height="80" as="geometry"/>
                </mxCell>
                <mxCell id="IltzzTHvNuD7wlDA7kX3-22" value="" style="endArrow=classic;html=1;entryX=0.5;entryY=0;entryDx=0;entryDy=0;exitX=0.5;exitY=1;exitDx=0;exitDy=0;" parent="IltzzTHvNuD7wlDA7kX3-1" source="IltzzTHvNuD7wlDA7kX3-20" target="IltzzTHvNuD7wlDA7kX3-21" edge="1">
                    <mxGeometry width="50" height="50" relative="1" as="geometry">
                        <mxPoint x="600" y="400" as="sourcePoint"/>
                        <mxPoint x="650" y="350" as="targetPoint"/>
                    </mxGeometry>
                </mxCell>
                <mxCell id="IltzzTHvNuD7wlDA7kX3-28" value="user info" style="edgeLabel;html=1;align=center;verticalAlign=middle;resizable=0;points=[];" parent="IltzzTHvNuD7wlDA7kX3-22" vertex="1" connectable="0">
                    <mxGeometry x="-0.0261" y="1" relative="1" as="geometry">
                        <mxPoint as="offset"/>
                    </mxGeometry>
                </mxCell>
                <mxCell id="IltzzTHvNuD7wlDA7kX3-24" value="" style="endArrow=classic;html=1;entryX=0.5;entryY=0;entryDx=0;entryDy=0;exitX=0.5;exitY=1;exitDx=0;exitDy=0;" parent="IltzzTHvNuD7wlDA7kX3-1" source="IltzzTHvNuD7wlDA7kX3-21" target="IltzzTHvNuD7wlDA7kX3-26" edge="1">
                    <mxGeometry width="50" height="50" relative="1" as="geometry">
                        <mxPoint x="690" y="660" as="sourcePoint"/>
                        <mxPoint x="590" y="680" as="targetPoint"/>
                    </mxGeometry>
                </mxCell>
                <mxCell id="IltzzTHvNuD7wlDA7kX3-25" value="getUser" style="edgeLabel;html=1;align=center;verticalAlign=middle;resizable=0;points=[];" parent="IltzzTHvNuD7wlDA7kX3-24" vertex="1" connectable="0">
                    <mxGeometry x="0.2521" y="2" relative="1" as="geometry">
                        <mxPoint as="offset"/>
                    </mxGeometry>
                </mxCell>
                <mxCell id="IltzzTHvNuD7wlDA7kX3-29" value="" style="edgeStyle=segmentEdgeStyle;endArrow=classic;html=1;exitX=1;exitY=0.5;exitDx=0;exitDy=0;entryX=0.5;entryY=1;entryDx=0;entryDy=0;" parent="IltzzTHvNuD7wlDA7kX3-1" source="IltzzTHvNuD7wlDA7kX3-26" target="IltzzTHvNuD7wlDA7kX3-30" edge="1">
                    <mxGeometry width="50" height="50" relative="1" as="geometry">
                        <mxPoint x="630" y="720" as="sourcePoint"/>
                        <mxPoint x="780" y="600" as="targetPoint"/>
                    </mxGeometry>
                </mxCell>
                <mxCell id="IltzzTHvNuD7wlDA7kX3-31" value="query results" style="edgeLabel;html=1;align=center;verticalAlign=middle;resizable=0;points=[];" parent="IltzzTHvNuD7wlDA7kX3-29" vertex="1" connectable="0">
                    <mxGeometry x="0.1876" relative="1" as="geometry">
                        <mxPoint as="offset"/>
                    </mxGeometry>
                </mxCell>
                <mxCell id="IltzzTHvNuD7wlDA7kX3-34" value="" style="edgeStyle=segmentEdgeStyle;endArrow=classic;html=1;exitX=1;exitY=0.5;exitDx=0;exitDy=0;entryX=0.5;entryY=0;entryDx=0;entryDy=0;" parent="IltzzTHvNuD7wlDA7kX3-1" source="IltzzTHvNuD7wlDA7kX3-30" target="IltzzTHvNuD7wlDA7kX3-36" edge="1">
                    <mxGeometry width="50" height="50" relative="1" as="geometry">
                        <mxPoint x="820" y="590" as="sourcePoint"/>
                        <mxPoint x="840" y="670" as="targetPoint"/>
                    </mxGeometry>
                </mxCell>
                <mxCell id="IltzzTHvNuD7wlDA7kX3-35" value="NO" style="edgeLabel;html=1;align=center;verticalAlign=middle;resizable=0;points=[];" parent="IltzzTHvNuD7wlDA7kX3-34" vertex="1" connectable="0">
                    <mxGeometry x="-0.1212" y="1" relative="1" as="geometry">
                        <mxPoint as="offset"/>
                    </mxGeometry>
                </mxCell>
                <mxCell id="9ubsqfYZCP7BpjDYP7gp-5" value="" style="edgeStyle=segmentEdgeStyle;endArrow=classic;html=1;entryX=0.5;entryY=1;entryDx=0;entryDy=0;exitX=1;exitY=0.5;exitDx=0;exitDy=0;" parent="IltzzTHvNuD7wlDA7kX3-1" source="IltzzTHvNuD7wlDA7kX3-36" target="9ubsqfYZCP7BpjDYP7gp-4" edge="1">
                    <mxGeometry width="50" height="50" relative="1" as="geometry">
                        <mxPoint x="890" y="720" as="sourcePoint"/>
                        <mxPoint x="1020" y="670" as="targetPoint"/>
                    </mxGeometry>
                </mxCell>
                <mxCell id="9ubsqfYZCP7BpjDYP7gp-6" value="user info" style="edgeLabel;html=1;align=center;verticalAlign=middle;resizable=0;points=[];" parent="9ubsqfYZCP7BpjDYP7gp-5" vertex="1" connectable="0">
                    <mxGeometry x="-0.0812" y="-2" relative="1" as="geometry">
                        <mxPoint as="offset"/>
                    </mxGeometry>
                </mxCell>
                <mxCell id="9ubsqfYZCP7BpjDYP7gp-7" value="" style="edgeStyle=segmentEdgeStyle;endArrow=classic;html=1;exitX=1;exitY=0.5;exitDx=0;exitDy=0;entryX=0.5;entryY=1;entryDx=0;entryDy=0;" parent="IltzzTHvNuD7wlDA7kX3-1" source="9ubsqfYZCP7BpjDYP7gp-4" target="IltzzTHvNuD7wlDA7kX3-33" edge="1">
                    <mxGeometry width="50" height="50" relative="1" as="geometry">
                        <mxPoint x="1030" y="580" as="sourcePoint"/>
                        <mxPoint x="1080" y="530" as="targetPoint"/>
                    </mxGeometry>
                </mxCell>
                <mxCell id="9ubsqfYZCP7BpjDYP7gp-8" value="jwt" style="edgeLabel;html=1;align=center;verticalAlign=middle;resizable=0;points=[];" parent="9ubsqfYZCP7BpjDYP7gp-7" vertex="1" connectable="0">
                    <mxGeometry x="-0.0828" y="-1" relative="1" as="geometry">
                        <mxPoint as="offset"/>
                    </mxGeometry>
                </mxCell>
                <mxCell id="IltzzTHvNuD7wlDA7kX3-4" value="database" style="swimlane;html=1;startSize=20;horizontal=0;" parent="IltzzTHvNuD7wlDA7kX3-1" vertex="1">
                    <mxGeometry y="620" width="1420" height="200" as="geometry"/>
                </mxCell>
                <mxCell id="IltzzTHvNuD7wlDA7kX3-26" value="user query" style="ellipse;whiteSpace=wrap;html=1;aspect=fixed;strokeColor=#FFFFFF;fillColor=#CC6600;" parent="IltzzTHvNuD7wlDA7kX3-4" vertex="1">
                    <mxGeometry x="550" y="60" width="80" height="80" as="geometry"/>
                </mxCell>
                <mxCell id="IltzzTHvNuD7wlDA7kX3-36" value="register user" style="ellipse;whiteSpace=wrap;html=1;aspect=fixed;strokeColor=#FFFFFF;fillColor=#CC6600;" parent="IltzzTHvNuD7wlDA7kX3-4" vertex="1">
                    <mxGeometry x="800" y="60" width="80" height="80" as="geometry"/>
                </mxCell>
                <mxCell id="IltzzTHvNuD7wlDA7kX3-6" value="Azure AD" style="swimlane;html=1;startSize=20;horizontal=0;" parent="uLK3mo7od4aeWB6zfHUG-1" vertex="1">
                    <mxGeometry x="70" y="70" width="1410" height="120" as="geometry"/>
                </mxCell>
                <mxCell id="IltzzTHvNuD7wlDA7kX3-10" value="auth?" style="rhombus;whiteSpace=wrap;html=1;fillColor=#A300A3;" parent="IltzzTHvNuD7wlDA7kX3-6" vertex="1">
                    <mxGeometry x="370" y="20" width="80" height="80" as="geometry"/>
                </mxCell>
                <mxCell id="IltzzTHvNuD7wlDA7kX3-11" value="" style="endArrow=classic;html=1;entryX=0.5;entryY=1;entryDx=0;entryDy=0;exitX=0.5;exitY=0;exitDx=0;exitDy=0;" parent="uLK3mo7od4aeWB6zfHUG-1" source="IltzzTHvNuD7wlDA7kX3-5" target="IltzzTHvNuD7wlDA7kX3-10" edge="1">
                    <mxGeometry width="50" height="50" relative="1" as="geometry">
                        <mxPoint x="690" y="440" as="sourcePoint"/>
                        <mxPoint x="479.99999999999955" y="160" as="targetPoint"/>
                    </mxGeometry>
                </mxCell>
                <mxCell id="IltzzTHvNuD7wlDA7kX3-27" value="user info" style="edgeLabel;html=1;align=center;verticalAlign=middle;resizable=0;points=[];" parent="IltzzTHvNuD7wlDA7kX3-11" vertex="1" connectable="0">
                    <mxGeometry x="-0.5881" relative="1" as="geometry">
                        <mxPoint x="1" as="offset"/>
                    </mxGeometry>
                </mxCell>
                <mxCell id="IltzzTHvNuD7wlDA7kX3-16" value="" style="edgeStyle=segmentEdgeStyle;endArrow=classic;html=1;exitX=0;exitY=0.5;exitDx=0;exitDy=0;entryX=0.5;entryY=0;entryDx=0;entryDy=0;" parent="uLK3mo7od4aeWB6zfHUG-1" source="IltzzTHvNuD7wlDA7kX3-10" target="IltzzTHvNuD7wlDA7kX3-8" edge="1">
                    <mxGeometry width="50" height="50" relative="1" as="geometry">
                        <mxPoint x="1060" y="410" as="sourcePoint"/>
                        <mxPoint x="1020" y="390" as="targetPoint"/>
                    </mxGeometry>
                </mxCell>
                <mxCell id="IltzzTHvNuD7wlDA7kX3-17" value="NO" style="edgeLabel;html=1;align=center;verticalAlign=middle;resizable=0;points=[];" parent="IltzzTHvNuD7wlDA7kX3-16" vertex="1" connectable="0">
                    <mxGeometry x="-0.0601" y="2" relative="1" as="geometry">
                        <mxPoint as="offset"/>
                    </mxGeometry>
                </mxCell>
                <mxCell id="IltzzTHvNuD7wlDA7kX3-18" value="" style="edgeStyle=segmentEdgeStyle;endArrow=classic;html=1;exitX=1;exitY=0.5;exitDx=0;exitDy=0;entryX=0.5;entryY=0;entryDx=0;entryDy=0;" parent="uLK3mo7od4aeWB6zfHUG-1" source="IltzzTHvNuD7wlDA7kX3-10" target="IltzzTHvNuD7wlDA7kX3-20" edge="1">
                    <mxGeometry width="50" height="50" relative="1" as="geometry">
                        <mxPoint x="519.9999999999995" y="120" as="sourcePoint"/>
                        <mxPoint x="890" y="440" as="targetPoint"/>
                    </mxGeometry>
                </mxCell>
                <mxCell id="IltzzTHvNuD7wlDA7kX3-19" value="YES" style="edgeLabel;html=1;align=center;verticalAlign=middle;resizable=0;points=[];" parent="IltzzTHvNuD7wlDA7kX3-18" vertex="1" connectable="0">
                    <mxGeometry x="-0.0601" y="2" relative="1" as="geometry">
                        <mxPoint as="offset"/>
                    </mxGeometry>
                </mxCell>
            </root>
        </mxGraphModel>
    </diagram>
    <diagram id="JB2LAMzvnDFxQzALARc3" name="state data">
        &#xa;
        <mxGraphModel dx="1412" dy="768" grid="1" gridSize="10" guides="1" tooltips="1" connect="1" arrows="1" fold="1" page="1" pageScale="1" pageWidth="1600" pageHeight="1200" math="0" shadow="0">
            &#xa;
            <root>
                &#xa;
                <mxCell id="r7kYe0aWUBP9IF7dYrGP-0"/>
                &#xa;
                <mxCell id="r7kYe0aWUBP9IF7dYrGP-1" parent="r7kYe0aWUBP9IF7dYrGP-0"/>
                &#xa;
                <mxCell id="r7kYe0aWUBP9IF7dYrGP-3" value="" style="rounded=0;whiteSpace=wrap;html=1;strokeColor=#9933FF;fillColor=none;" parent="r7kYe0aWUBP9IF7dYrGP-1" vertex="1">
                    &#xa;
                    <mxGeometry x="180" y="140" width="2200" height="960" as="geometry"/>
                    &#xa;
                </mxCell>
                &#xa;
                <mxCell id="r7kYe0aWUBP9IF7dYrGP-4" value="&lt;font style=&quot;font-size: 24px&quot;&gt;App&lt;/font&gt;" style="text;html=1;align=center;verticalAlign=middle;resizable=0;points=[];autosize=1;" parent="r7kYe0aWUBP9IF7dYrGP-1" vertex="1">
                    &#xa;
                    <mxGeometry x="220" y="90" width="60" height="20" as="geometry"/>
                    &#xa;
                </mxCell>
                &#xa;
                <mxCell id="IjMAyhQE1TxSltttrnzp-4" value="" style="group" parent="r7kYe0aWUBP9IF7dYrGP-1" vertex="1" connectable="0">
                    &#xa;
                    <mxGeometry x="710" y="170" width="180" height="150" as="geometry"/>
                    &#xa;
                </mxCell>
                &#xa;
                <mxCell id="IjMAyhQE1TxSltttrnzp-2" value="- jwt&lt;br&gt;- user info&lt;br&gt;- nav status&lt;br&gt;- courses" style="rounded=1;whiteSpace=wrap;html=1;" parent="IjMAyhQE1TxSltttrnzp-4" vertex="1">
                    &#xa;
                    <mxGeometry y="30" width="180" height="120" as="geometry"/>
                    &#xa;
                </mxCell>
                &#xa;
                <mxCell id="IjMAyhQE1TxSltttrnzp-3" value="Global state" style="text;html=1;align=center;verticalAlign=middle;resizable=0;points=[];autosize=1;" parent="IjMAyhQE1TxSltttrnzp-4" vertex="1">
                    &#xa;
                    <mxGeometry x="20" width="80" height="20" as="geometry"/>
                    &#xa;
                </mxCell>
                &#xa;
                <mxCell id="IjMAyhQE1TxSltttrnzp-5" value="" style="group" parent="r7kYe0aWUBP9IF7dYrGP-1" vertex="1" connectable="0">
                    &#xa;
                    <mxGeometry x="420" y="280" width="180" height="150" as="geometry"/>
                    &#xa;
                </mxCell>
                &#xa;
                <mxCell id="IjMAyhQE1TxSltttrnzp-6" value="- G nav status" style="rounded=1;whiteSpace=wrap;html=1;strokeColor=#00CC66;" parent="IjMAyhQE1TxSltttrnzp-5" vertex="1">
                    &#xa;
                    <mxGeometry y="30" width="180" height="120" as="geometry"/>
                    &#xa;
                </mxCell>
                &#xa;
                <mxCell id="IjMAyhQE1TxSltttrnzp-7" value="Nav state" style="text;html=1;align=center;verticalAlign=middle;resizable=0;points=[];autosize=1;" parent="IjMAyhQE1TxSltttrnzp-5" vertex="1">
                    &#xa;
                    <mxGeometry x="25" width="70" height="20" as="geometry"/>
                    &#xa;
                </mxCell>
                &#xa;
                <mxCell id="IjMAyhQE1TxSltttrnzp-8" value="" style="group" parent="r7kYe0aWUBP9IF7dYrGP-1" vertex="1" connectable="0">
                    &#xa;
                    <mxGeometry x="520" y="510" width="180" height="150" as="geometry"/>
                    &#xa;
                </mxCell>
                &#xa;
                <mxCell id="IjMAyhQE1TxSltttrnzp-9" value="- G user info&lt;br&gt;-&amp;nbsp; G courses&lt;br&gt;&amp;nbsp;" style="rounded=1;whiteSpace=wrap;html=1;strokeColor=#CC6600;" parent="IjMAyhQE1TxSltttrnzp-8" vertex="1">
                    &#xa;
                    <mxGeometry y="30" width="180" height="120" as="geometry"/>
                    &#xa;
                </mxCell>
                &#xa;
                <mxCell id="IjMAyhQE1TxSltttrnzp-10" value="dashboard page state" style="text;html=1;align=center;verticalAlign=middle;resizable=0;points=[];autosize=1;" parent="IjMAyhQE1TxSltttrnzp-8" vertex="1">
                    &#xa;
                    <mxGeometry x="-5" width="130" height="20" as="geometry"/>
                    &#xa;
                </mxCell>
                &#xa;
                <mxCell id="IjMAyhQE1TxSltttrnzp-11" value="" style="group" parent="r7kYe0aWUBP9IF7dYrGP-1" vertex="1" connectable="0">
                    &#xa;
                    <mxGeometry x="260" y="510" width="180" height="150" as="geometry"/>
                    &#xa;
                </mxCell>
                &#xa;
                <mxCell id="IjMAyhQE1TxSltttrnzp-12" value="- G jwt" style="rounded=1;whiteSpace=wrap;html=1;strokeColor=#CC6600;" parent="IjMAyhQE1TxSltttrnzp-11" vertex="1">
                    &#xa;
                    <mxGeometry y="30" width="180" height="120" as="geometry"/>
                    &#xa;
                </mxCell>
                &#xa;
                <mxCell id="IjMAyhQE1TxSltttrnzp-13" value="landing page state" style="text;html=1;align=center;verticalAlign=middle;resizable=0;points=[];autosize=1;" parent="IjMAyhQE1TxSltttrnzp-11" vertex="1">
                    &#xa;
                    <mxGeometry x="5" width="110" height="20" as="geometry"/>
                    &#xa;
                </mxCell>
                &#xa;
                <mxCell id="IjMAyhQE1TxSltttrnzp-14" value="" style="group" parent="r7kYe0aWUBP9IF7dYrGP-1" vertex="1" connectable="0">
                    &#xa;
                    <mxGeometry x="750" y="510" width="180" height="150" as="geometry"/>
                    &#xa;
                </mxCell>
                &#xa;
                <mxCell id="IjMAyhQE1TxSltttrnzp-15" value="-&amp;nbsp; G courses&lt;br&gt;- search&lt;br&gt;&amp;nbsp;" style="rounded=1;whiteSpace=wrap;html=1;strokeColor=#CC6600;" parent="IjMAyhQE1TxSltttrnzp-14" vertex="1">
                    &#xa;
                    <mxGeometry y="30" width="180" height="120" as="geometry"/>
                    &#xa;
                </mxCell>
                &#xa;
                <mxCell id="IjMAyhQE1TxSltttrnzp-16" value="Courses page state" style="text;html=1;align=center;verticalAlign=middle;resizable=0;points=[];autosize=1;" parent="IjMAyhQE1TxSltttrnzp-14" vertex="1">
                    &#xa;
                    <mxGeometry width="120" height="20" as="geometry"/>
                    &#xa;
                </mxCell>
                &#xa;
                <mxCell id="IjMAyhQE1TxSltttrnzp-17" value="" style="group" parent="r7kYe0aWUBP9IF7dYrGP-1" vertex="1" connectable="0">
                    &#xa;
                    <mxGeometry x="990" y="510" width="180" height="150" as="geometry"/>
                    &#xa;
                </mxCell>
                &#xa;
                <mxCell id="IjMAyhQE1TxSltttrnzp-18" value="-&amp;nbsp; {course}&amp;nbsp;" style="rounded=1;whiteSpace=wrap;html=1;strokeColor=#CC6600;" parent="IjMAyhQE1TxSltttrnzp-17" vertex="1">
                    &#xa;
                    <mxGeometry y="30" width="180" height="120" as="geometry"/>
                    &#xa;
                </mxCell>
                &#xa;
                <mxCell id="IjMAyhQE1TxSltttrnzp-19" value="single course page state" style="text;html=1;align=center;verticalAlign=middle;resizable=0;points=[];autosize=1;" parent="IjMAyhQE1TxSltttrnzp-17" vertex="1">
                    &#xa;
                    <mxGeometry width="150" height="20" as="geometry"/>
                    &#xa;
                </mxCell>
                &#xa;
                <mxCell id="IjMAyhQE1TxSltttrnzp-21" value="" style="group" parent="r7kYe0aWUBP9IF7dYrGP-1" vertex="1" connectable="0">
                    &#xa;
                    <mxGeometry x="750" y="710" width="180" height="150" as="geometry"/>
                    &#xa;
                </mxCell>
                &#xa;
                <mxCell id="IjMAyhQE1TxSltttrnzp-22" value="- {course}" style="rounded=1;whiteSpace=wrap;html=1;strokeColor=#00994D;" parent="IjMAyhQE1TxSltttrnzp-21" vertex="1">
                    &#xa;
                    <mxGeometry y="30" width="180" height="120" as="geometry"/>
                    &#xa;
                </mxCell>
                &#xa;
                <mxCell id="IjMAyhQE1TxSltttrnzp-23" value="Course card state" style="text;html=1;align=center;verticalAlign=middle;resizable=0;points=[];autosize=1;" parent="IjMAyhQE1TxSltttrnzp-21" vertex="1">
                    &#xa;
                    <mxGeometry x="5" width="110" height="20" as="geometry"/>
                    &#xa;
                </mxCell>
                &#xa;
                <mxCell id="IjMAyhQE1TxSltttrnzp-24" value="" style="rounded=0;whiteSpace=wrap;html=1;strokeColor=#66B2FF;fillColor=none;" parent="r7kYe0aWUBP9IF7dYrGP-1" vertex="1">
                    &#xa;
                    <mxGeometry x="12.5" y="280" width="150" height="570" as="geometry"/>
                    &#xa;
                </mxCell>
                &#xa;
                <mxCell id="IjMAyhQE1TxSltttrnzp-25" value="Key" style="text;html=1;align=center;verticalAlign=middle;resizable=0;points=[];autosize=1;" parent="r7kYe0aWUBP9IF7dYrGP-1" vertex="1">
                    &#xa;
                    <mxGeometry x="42.5" y="250" width="40" height="20" as="geometry"/>
                    &#xa;
                </mxCell>
                &#xa;
                <mxCell id="IjMAyhQE1TxSltttrnzp-26" value="" style="group" parent="r7kYe0aWUBP9IF7dYrGP-1" vertex="1" connectable="0">
                    &#xa;
                    <mxGeometry x="40" y="460" width="90" height="90" as="geometry"/>
                    &#xa;
                </mxCell>
                &#xa;
                <mxCell id="IjMAyhQE1TxSltttrnzp-27" value="- state" style="rounded=1;whiteSpace=wrap;html=1;strokeColor=#00994D;" parent="IjMAyhQE1TxSltttrnzp-26" vertex="1">
                    &#xa;
                    <mxGeometry y="18" width="90" height="72" as="geometry"/>
                    &#xa;
                </mxCell>
                &#xa;
                <mxCell id="IjMAyhQE1TxSltttrnzp-28" value="component" style="text;html=1;align=center;verticalAlign=middle;resizable=0;points=[];autosize=1;" parent="IjMAyhQE1TxSltttrnzp-26" vertex="1">
                    &#xa;
                    <mxGeometry x="12.499999999999998" width="70" height="20" as="geometry"/>
                    &#xa;
                </mxCell>
                &#xa;
                <mxCell id="IjMAyhQE1TxSltttrnzp-29" value="" style="group" parent="r7kYe0aWUBP9IF7dYrGP-1" vertex="1" connectable="0">
                    &#xa;
                    <mxGeometry x="1650" y="510" width="180" height="150" as="geometry"/>
                    &#xa;
                </mxCell>
                &#xa;
                <mxCell id="IjMAyhQE1TxSltttrnzp-30" value="- plan&lt;br&gt;- G courses&lt;br&gt;- beenEdited" style="rounded=1;whiteSpace=wrap;html=1;strokeColor=#CC6600;" parent="IjMAyhQE1TxSltttrnzp-29" vertex="1">
                    &#xa;
                    <mxGeometry y="30" width="180" height="120" as="geometry"/>
                    &#xa;
                </mxCell>
                &#xa;
                <mxCell id="IjMAyhQE1TxSltttrnzp-31" value="single plan page state" style="text;html=1;align=center;verticalAlign=middle;resizable=0;points=[];autosize=1;" parent="IjMAyhQE1TxSltttrnzp-29" vertex="1">
                    &#xa;
                    <mxGeometry x="10" width="130" height="20" as="geometry"/>
                    &#xa;
                </mxCell>
                &#xa;
                <mxCell id="IjMAyhQE1TxSltttrnzp-32" value="" style="group" parent="r7kYe0aWUBP9IF7dYrGP-1" vertex="1" connectable="0">
                    &#xa;
                    <mxGeometry x="1560" y="700" width="180" height="150" as="geometry"/>
                    &#xa;
                </mxCell>
                &#xa;
                <mxCell id="IjMAyhQE1TxSltttrnzp-33" value="- {plan}&lt;br&gt;- terms&lt;br&gt;" style="rounded=1;whiteSpace=wrap;html=1;strokeColor=#00994D;" parent="IjMAyhQE1TxSltttrnzp-32" vertex="1">
                    &#xa;
                    <mxGeometry y="30" width="180" height="120" as="geometry"/>
                    &#xa;
                </mxCell>
                &#xa;
                <mxCell id="IjMAyhQE1TxSltttrnzp-34" value="plan terms state" style="text;html=1;align=center;verticalAlign=middle;resizable=0;points=[];autosize=1;" parent="IjMAyhQE1TxSltttrnzp-32" vertex="1">
                    &#xa;
                    <mxGeometry x="25" width="100" height="20" as="geometry"/>
                    &#xa;
                </mxCell>
                &#xa;
                <mxCell id="IjMAyhQE1TxSltttrnzp-36" value="" style="group" parent="r7kYe0aWUBP9IF7dYrGP-1" vertex="1" connectable="0">
                    &#xa;
                    <mxGeometry x="1560" y="870" width="180" height="150" as="geometry"/>
                    &#xa;
                </mxCell>
                &#xa;
                <mxCell id="IjMAyhQE1TxSltttrnzp-37" value="- {term}&lt;br&gt;- courses" style="rounded=1;whiteSpace=wrap;html=1;strokeColor=#00994D;" parent="IjMAyhQE1TxSltttrnzp-36" vertex="1">
                    &#xa;
                    <mxGeometry y="30" width="180" height="120" as="geometry"/>
                    &#xa;
                </mxCell>
                &#xa;
                <mxCell id="IjMAyhQE1TxSltttrnzp-38" value="plan term card state" style="text;html=1;align=center;verticalAlign=middle;resizable=0;points=[];autosize=1;" parent="IjMAyhQE1TxSltttrnzp-36" vertex="1">
                    &#xa;
                    <mxGeometry x="15" width="120" height="20" as="geometry"/>
                    &#xa;
                </mxCell>
                &#xa;
                <mxCell id="IjMAyhQE1TxSltttrnzp-39" value="" style="group" parent="r7kYe0aWUBP9IF7dYrGP-1" vertex="1" connectable="0">
                    &#xa;
                    <mxGeometry x="1750" y="700" width="180" height="150" as="geometry"/>
                    &#xa;
                </mxCell>
                &#xa;
                <mxCell id="IjMAyhQE1TxSltttrnzp-40" value="- courses left&lt;br&gt;- search" style="rounded=1;whiteSpace=wrap;html=1;strokeColor=#00994D;" parent="IjMAyhQE1TxSltttrnzp-39" vertex="1">
                    &#xa;
                    <mxGeometry y="30" width="180" height="120" as="geometry"/>
                    &#xa;
                </mxCell>
                &#xa;
                <mxCell id="IjMAyhQE1TxSltttrnzp-41" value="plan courses state" style="text;html=1;align=center;verticalAlign=middle;resizable=0;points=[];autosize=1;" parent="IjMAyhQE1TxSltttrnzp-39" vertex="1">
                    &#xa;
                    <mxGeometry x="20" width="110" height="20" as="geometry"/>
                    &#xa;
                </mxCell>
                &#xa;
                <mxCell id="IjMAyhQE1TxSltttrnzp-42" value="" style="group" parent="r7kYe0aWUBP9IF7dYrGP-1" vertex="1" connectable="0">
                    &#xa;
                    <mxGeometry x="1290" y="510" width="180" height="150" as="geometry"/>
                    &#xa;
                </mxCell>
                &#xa;
                <mxCell id="IjMAyhQE1TxSltttrnzp-43" value="-&amp;nbsp; G user info&lt;br&gt;- plans&amp;nbsp;" style="rounded=1;whiteSpace=wrap;html=1;strokeColor=#CC6600;" parent="IjMAyhQE1TxSltttrnzp-42" vertex="1">
                    &#xa;
                    <mxGeometry y="30" width="180" height="120" as="geometry"/>
                    &#xa;
                </mxCell>
                &#xa;
                <mxCell id="IjMAyhQE1TxSltttrnzp-44" value="plans page state" style="text;html=1;align=center;verticalAlign=middle;resizable=0;points=[];autosize=1;" parent="IjMAyhQE1TxSltttrnzp-42" vertex="1">
                    &#xa;
                    <mxGeometry x="25" width="100" height="20" as="geometry"/>
                    &#xa;
                </mxCell>
                &#xa;
                <mxCell id="IjMAyhQE1TxSltttrnzp-45" value="" style="group" parent="r7kYe0aWUBP9IF7dYrGP-1" vertex="1" connectable="0">
                    &#xa;
                    <mxGeometry x="42.5" y="320" width="90" height="90" as="geometry"/>
                    &#xa;
                </mxCell>
                &#xa;
                <mxCell id="IjMAyhQE1TxSltttrnzp-46" value="- state" style="rounded=1;whiteSpace=wrap;html=1;strokeColor=#FF8000;" parent="IjMAyhQE1TxSltttrnzp-45" vertex="1">
                    &#xa;
                    <mxGeometry y="18" width="90" height="72" as="geometry"/>
                    &#xa;
                </mxCell>
                &#xa;
                <mxCell id="IjMAyhQE1TxSltttrnzp-47" value="page" style="text;html=1;align=center;verticalAlign=middle;resizable=0;points=[];autosize=1;" parent="IjMAyhQE1TxSltttrnzp-45" vertex="1">
                    &#xa;
                    <mxGeometry x="27.5" width="40" height="20" as="geometry"/>
                    &#xa;
                </mxCell>
                &#xa;
                <mxCell id="IjMAyhQE1TxSltttrnzp-48" value="&lt;span&gt;- state data&lt;/span&gt;&lt;br&gt;&lt;br&gt;&lt;span&gt;- G from global state&lt;/span&gt;&lt;br&gt;&lt;br&gt;&lt;span&gt;- {props}&lt;/span&gt;" style="text;html=1;align=center;verticalAlign=middle;resizable=0;points=[];autosize=1;" parent="r7kYe0aWUBP9IF7dYrGP-1" vertex="1">
                    &#xa;
                    <mxGeometry x="27.5" y="610" width="120" height="80" as="geometry"/>
                    &#xa;
                </mxCell>
                &#xa;
                <mxCell id="IjMAyhQE1TxSltttrnzp-50" value="" style="group" parent="r7kYe0aWUBP9IF7dYrGP-1" vertex="1" connectable="0">
                    &#xa;
                    <mxGeometry x="1290" y="690" width="180" height="150" as="geometry"/>
                    &#xa;
                </mxCell>
                &#xa;
                <mxCell id="IjMAyhQE1TxSltttrnzp-51" value="- {plan}" style="rounded=1;whiteSpace=wrap;html=1;strokeColor=#00994D;" parent="IjMAyhQE1TxSltttrnzp-50" vertex="1">
                    &#xa;
                    <mxGeometry y="30" width="180" height="120" as="geometry"/>
                    &#xa;
                </mxCell>
                &#xa;
                <mxCell id="IjMAyhQE1TxSltttrnzp-52" value="plan card state" style="text;html=1;align=center;verticalAlign=middle;resizable=0;points=[];autosize=1;" parent="IjMAyhQE1TxSltttrnzp-50" vertex="1">
                    &#xa;
                    <mxGeometry x="30" width="90" height="20" as="geometry"/>
                    &#xa;
                </mxCell>
                &#xa;
            </root>
            &#xa;
        </mxGraphModel>
        &#xa;
    </diagram>
</mxfile>